<mxfile host="app.diagrams.net" modified="2023-03-02T05:51:18.960Z" agent="5.0 (Macintosh; Intel Mac OS X 10_15_7) AppleWebKit/605.1.15 (KHTML, like Gecko) Version/16.2 Safari/605.1.15" etag="oUUgO8Wf-DZ8V7lguCDP" version="20.8.23" type="github">
  <diagram name="Page-1" id="OptWKPEfHCBcG7DoQpqf">
    <mxGraphModel dx="954" dy="647" grid="1" gridSize="10" guides="1" tooltips="1" connect="1" arrows="1" fold="1" page="1" pageScale="1" pageWidth="827" pageHeight="1169" math="0" shadow="0">
      <root>
        <mxCell id="0" />
        <mxCell id="1" parent="0" />
        <mxCell id="iwfsimu-f-NsOI23pudJ-3" value="Vertical Tree Layout" style="swimlane;startSize=20;horizontal=1;childLayout=treeLayout;horizontalTree=0;resizable=0;containerType=tree;fontSize=12;" vertex="1" parent="1">
          <mxGeometry x="220" y="190" width="280" height="190" as="geometry" />
        </mxCell>
        <mxCell id="iwfsimu-f-NsOI23pudJ-4" value="Root" style="whiteSpace=wrap;html=1;" vertex="1" parent="iwfsimu-f-NsOI23pudJ-3">
          <mxGeometry x="90" y="40" width="100" height="40" as="geometry" />
        </mxCell>
        <mxCell id="iwfsimu-f-NsOI23pudJ-5" value="Child 1" style="whiteSpace=wrap;html=1;" vertex="1" parent="iwfsimu-f-NsOI23pudJ-3">
          <mxGeometry x="20" y="130" width="100" height="40" as="geometry" />
        </mxCell>
        <mxCell id="iwfsimu-f-NsOI23pudJ-6" value="" style="edgeStyle=elbowEdgeStyle;elbow=vertical;html=1;rounded=1;curved=0;sourcePerimeterSpacing=0;targetPerimeterSpacing=0;startSize=6;endSize=6;" edge="1" parent="iwfsimu-f-NsOI23pudJ-3" source="iwfsimu-f-NsOI23pudJ-4" target="iwfsimu-f-NsOI23pudJ-5">
          <mxGeometry relative="1" as="geometry" />
        </mxCell>
        <mxCell id="iwfsimu-f-NsOI23pudJ-7" value="Child 2" style="whiteSpace=wrap;html=1;" vertex="1" parent="iwfsimu-f-NsOI23pudJ-3">
          <mxGeometry x="160" y="130" width="100" height="40" as="geometry" />
        </mxCell>
        <mxCell id="iwfsimu-f-NsOI23pudJ-8" value="" style="edgeStyle=elbowEdgeStyle;elbow=vertical;html=1;rounded=1;curved=0;sourcePerimeterSpacing=0;targetPerimeterSpacing=0;startSize=6;endSize=6;" edge="1" parent="iwfsimu-f-NsOI23pudJ-3" source="iwfsimu-f-NsOI23pudJ-4" target="iwfsimu-f-NsOI23pudJ-7">
          <mxGeometry relative="1" as="geometry" />
        </mxCell>
      </root>
    </mxGraphModel>
  </diagram>
</mxfile>
